<svg width="21" height="17" viewBox="0 0 21 17" fill="none" xmlns="http://www.w3.org/2000/svg">
<g clip-path="url(#clip0_645_195)">
<path d="M14.2137 5.14279C14.4546 5.14279 14.6931 5.16062 14.9315 5.1861C14.288 2.21097 11.0858 0 7.42986 0C3.4124 0 0.110243 2.67201 0 6.10309V6.46479C0.0640947 8.41085 1.16652 10.0156 2.97143 11.2688L2.22793 13.49L4.82762 12.196C5.75827 12.3768 6.50177 12.5653 7.42986 12.5653C7.66317 12.5653 7.89391 12.5551 8.12209 12.5373C7.97851 12.0432 7.89134 11.5261 7.89134 10.9886C7.89647 7.76131 10.6833 5.14279 14.2137 5.14279ZM10.2167 3.1407C10.7782 3.1407 11.1474 3.50749 11.1474 4.06278C11.1474 4.61552 10.7782 4.98741 10.2167 4.98741C9.66036 4.98741 9.10145 4.61807 9.10145 4.06278C9.10402 3.50494 9.66036 3.1407 10.2167 3.1407ZM5.01477 4.98487C4.45587 4.98487 3.8944 4.61552 3.8944 4.06023C3.8944 3.50494 4.45587 3.13815 5.01477 3.13815C5.57368 3.13815 5.94286 3.5024 5.94286 4.06023C5.94286 4.61552 5.57368 4.98487 5.01477 4.98487Z" fill="#333333"/>
<path d="M21 10.8993C21 7.94714 18.026 5.54004 14.6854 5.54004C11.1473 5.54004 8.36307 7.94714 8.36307 10.8993C8.36307 13.8592 11.1473 16.2586 14.6854 16.2586C15.4263 16.2586 16.1724 16.0752 16.9159 15.8893L18.9541 16.9999L18.3952 15.1532C19.8873 14.04 21 12.5652 21 10.8993ZM12.6343 9.97471C12.2652 9.97471 11.8908 9.61046 11.8908 9.23602C11.8908 8.86923 12.2652 8.49734 12.6343 8.49734C13.1984 8.49734 13.565 8.86668 13.565 9.23602C13.565 9.60791 13.1984 9.97471 12.6343 9.97471ZM16.7236 9.97471C16.357 9.97471 15.9852 9.61046 15.9852 9.23602C15.9852 8.86923 16.357 8.49734 16.7236 8.49734C17.2825 8.49734 17.6542 8.86668 17.6542 9.23602C17.6542 9.60791 17.2825 9.97471 16.7236 9.97471Z" fill="#333333"/>
</g>
<defs>
<clipPath id="clip0_645_195">
<rect width="21" height="17" fill="white"/>
</clipPath>
</defs>
</svg>
