<svg width="11" height="11" viewBox="0 0 11 11" fill="none" xmlns="http://www.w3.org/2000/svg">
<path d="M10.4297 0C10.5856 0 10.7281 0.0639954 10.832 0.167969C10.936 0.270017 11 0.412427 11 0.570312C11 0.589464 10.998 0.610756 10.9961 0.629883V10.4316C10.9961 10.7474 10.7397 11 10.4277 11C10.116 10.9998 9.86035 10.7473 9.86035 10.4316V1.95605L1.01855 10.7979C0.797166 11.0192 0.439203 11.0192 0.217773 10.7979C-0.00364791 10.5764 -0.00364097 10.2185 0.217773 9.99707L9.07422 1.13965H0.564453C0.25267 1.13965 0.00022195 0.883999 0 0.572266C0 0.25842 0.252588 0.00390625 0.568359 0.00390625H10.3701C10.3893 0.00199247 10.4087 2.3095e-05 10.4297 0Z" fill="white"/>
</svg>
