<svg width="14" height="11" viewBox="0 0 14 11" fill="none" xmlns="http://www.w3.org/2000/svg">
<path d="M11.746 0H1.25396C0.562491 0 0 0.569253 0 1.26904V8.73097C0 9.43075 0.562491 10 1.25396 10H11.746C12.4375 10 13 9.43075 13 8.73097V1.26904C13.0018 0.569253 12.4375 0 11.746 0ZM11.6887 0.991661L6.50089 4.77883L1.31308 0.991661H11.6887ZM12.0201 8.73097C12.0201 8.88325 11.8965 9.00834 11.746 9.00834H1.25396C1.10349 9.00834 0.979881 8.88506 0.979881 8.73097V1.97244L6.46865 5.97716L6.50089 6.00073L12.0201 1.97244V8.73097Z" fill="black"/>
</svg>
