<svg width="13" height="15" viewBox="0 0 13 15" fill="none" xmlns="http://www.w3.org/2000/svg">
<g clip-path="url(#clip0_645_185)">
<path d="M13 6.43037C13 2.87818 10.0881 0 6.49894 0C2.96907 0 0.0952303 2.78398 0 6.25454V6.60829C0.0465571 8.29124 0.747029 9.81091 1.85805 10.9329H1.85593L1.88344 10.9601C1.89614 10.9726 1.90884 10.9873 1.92365 10.9999L5.59743 14.6316C6.09474 15.1235 6.90103 15.1235 7.39834 14.6316L11.0742 10.9957C11.0869 10.9831 11.1017 10.9706 11.1144 10.9559L11.142 10.9287H11.1398C12.2889 9.77114 13 8.18239 13 6.43037ZM10.3272 10.2065L7.39834 13.1182C6.49894 14.0078 6.49894 14.0099 5.59743 13.1182L2.67068 10.2065C1.69298 9.23737 1.08139 7.90818 1.08139 6.43037C1.08139 3.47056 3.50659 1.07173 6.49894 1.07173C9.49129 1.07173 11.9165 3.47056 11.9165 6.43037C11.9165 7.90818 11.3049 9.23737 10.3272 10.2065Z" fill="#272636"/>
<path d="M6.50053 3.21484C4.70597 3.21484 3.25 4.65498 3.25 6.43003C3.25 8.20508 4.70597 9.64521 6.50053 9.64521C8.29509 9.64521 9.75106 8.20508 9.75106 6.43003C9.75106 4.65498 8.29509 3.21484 6.50053 3.21484ZM6.50053 8.57348C5.30486 8.57348 4.33351 7.6127 4.33351 6.43003C4.33351 5.24527 5.30486 4.28657 6.50053 4.28657C7.69832 4.28657 8.66755 5.24527 8.66755 6.43003C8.66755 7.61479 7.6962 8.57348 6.50053 8.57348Z" fill="#272636"/>
</g>
<defs>
<clipPath id="clip0_645_185">
<rect width="13" height="15" fill="white"/>
</clipPath>
</defs>
</svg>
