<svg width="15" height="14" viewBox="0 0 15 14" fill="none" xmlns="http://www.w3.org/2000/svg">
<path d="M14.9965 10.9801C14.968 10.5495 14.7393 10.159 14.3555 9.88078L11.9323 8.12411C11.7037 7.95836 11.3791 7.865 11.0443 7.865C10.7768 7.865 10.5216 7.92597 10.3236 8.03838L8.82518 8.88242C8.60062 8.81954 7.9249 8.56805 6.85109 7.61922C5.88751 6.66467 5.58129 6.01688 5.49147 5.75585L6.38971 4.3669C6.67144 3.92678 6.63061 3.26565 6.29581 2.86364L4.41766 0.600163C4.09919 0.219107 3.63373 0 3.14174 0C2.71507 0 2.30474 0.161949 1.98831 0.459173L0.704227 1.65569C0.389841 1.9491 0.161196 2.35874 0.0591229 2.81219C-0.0429505 3.26184 -0.0123285 3.7153 0.146906 4.09254C0.206109 4.27926 0.442919 4.94801 1.05944 5.9521C1.87603 7.28008 2.99475 8.61187 4.38499 9.90936C7.80241 13.1007 10.3318 13.8057 10.6278 13.88C10.8646 13.96 11.128 14 11.4076 14C12.0977 14 12.7958 13.7466 13.2286 13.3408L14.5107 12.1443C14.8536 11.8242 15.0272 11.4107 14.9965 10.9801ZM13.8227 11.5022L12.5407 12.6987C12.2855 12.9369 11.8404 13.0912 11.4056 13.0912C11.2402 13.0912 11.0871 13.0683 10.9606 13.0264L10.9565 13.0226L10.8911 13.0035C10.7911 12.9788 8.38014 12.3538 5.07093 9.26538C3.39692 7.70305 2.40273 6.3141 1.86378 5.42624C1.30034 4.49265 1.10231 3.90582 1.07986 3.83152V3.8258L1.05536 3.75912L1.05128 3.75531C0.865503 3.319 1.0227 2.64072 1.39424 2.29586L2.67628 1.09935C2.81102 0.975504 2.97434 0.908819 3.1397 0.908819C3.33364 0.908819 3.51329 0.996462 3.64598 1.15841L5.52821 3.42188C5.62212 3.5362 5.63641 3.77627 5.5568 3.8982L4.48707 5.55199L4.47278 5.57295L4.48707 5.72156C4.49727 5.82254 4.62997 6.7485 6.16107 8.25749L6.16719 8.2632C7.82078 9.72455 8.74353 9.81219 8.91297 9.8141L9.04975 9.816L10.8279 8.81573C10.8769 8.78715 10.9585 8.77001 11.0483 8.77001C11.1647 8.77001 11.277 8.79858 11.3382 8.84241L13.7615 10.5991C13.9207 10.7153 14.0166 10.8715 14.0268 11.0373C14.0391 11.203 13.9656 11.3688 13.8227 11.5022Z" fill="black"/>
</svg>
