<svg width="13" height="13" viewBox="0 0 13 13" fill="none" xmlns="http://www.w3.org/2000/svg">
<g clip-path="url(#clip0_645_189)">
<path d="M11.9772 1.05929L11.9426 1.02468C11.2896 0.369253 10.4035 0 9.48055 0C8.55759 0 7.67154 0.369253 7.01854 1.02237L6.06557 1.9755C6.0102 2.02858 5.95482 2.08628 5.90636 2.14628L5.52564 2.61015L6.4463 3.34866L6.81549 2.88709C6.83856 2.86171 6.86163 2.83632 6.88702 2.81324L7.83998 1.86011C8.26916 1.42855 8.85524 1.18392 9.4644 1.18392C10.0736 1.18392 10.6596 1.42624 11.0888 1.86011L11.1234 1.89473C11.5549 2.32398 11.7995 2.91017 11.7995 3.51944C11.7995 4.12871 11.5572 4.71489 11.1234 5.14415L9.25443 7.01349C9.23135 7.03888 9.20597 7.06196 9.18059 7.08503L9.1529 7.10811C8.24147 7.90662 6.86856 7.86046 6.0125 7.00195L5.55794 6.54731L4.72266 7.38274L5.17722 7.83739C5.8256 8.4905 6.70934 8.85745 7.6277 8.85975L7.63693 8.88052C8.49067 8.87591 9.31211 8.55974 9.94896 7.99432C10.0043 7.94816 10.0551 7.8997 10.1059 7.84893L11.9749 5.97958C12.6302 5.32647 12.9971 4.44257 12.9971 3.51713C12.9994 2.59631 12.6325 1.7101 11.9772 1.05929Z" fill="#333333"/>
<path d="M6.17696 10.1105C6.15389 10.1358 6.13081 10.1612 6.10543 10.1843L5.15247 11.1374C4.72329 11.569 4.1372 11.8136 3.52804 11.8136C2.91889 11.8136 2.3328 11.5713 1.90362 11.1374L1.86901 11.1028C1.43752 10.6736 1.19294 10.0874 1.19294 9.47811C1.19294 8.86884 1.43521 8.28265 1.86901 7.85339L3.73802 5.98405C3.76109 5.95867 3.78647 5.93559 3.81186 5.91251L3.83955 5.88943C4.75098 5.09092 6.12389 5.13708 6.97994 5.99559L7.43451 6.45023L8.26979 5.6148L7.81292 5.14631C6.51384 3.84469 4.42563 3.78238 3.0481 5.00092C2.99272 5.04707 2.94196 5.09554 2.8912 5.14631L1.02219 7.01565C0.369187 7.66877 0 8.55497 0 9.47811C0 10.4012 0.369187 11.2874 1.02219 11.9406L1.0568 11.9752C1.70749 12.6306 2.59354 12.9999 3.51651 12.9975C4.43717 12.9975 5.32091 12.6306 5.9716 11.9752L6.92457 11.022C6.97994 10.969 7.03532 10.9113 7.08378 10.8513L7.46681 10.3874L6.54153 9.64888L6.17696 10.1105Z" fill="#333333"/>
</g>
<defs>
<clipPath id="clip0_645_189">
<rect width="13" height="13" fill="white"/>
</clipPath>
</defs>
</svg>
